<svg width="34" height="34" viewBox="0 0 34 34" fill="none" xmlns="http://www.w3.org/2000/svg">
<path d="M16.9762 25.0478C15.2422 22.8718 14.2222 20.9644 13.8822 19.3324C13.5422 18.0064 13.6782 16.9524 14.2562 16.1704C14.8682 15.2524 15.7862 14.8104 16.9762 14.8104C18.1662 14.8104 19.0842 15.2524 19.6962 16.1704C20.2742 16.9524 20.4102 18.0064 20.0702 19.3324C19.6962 20.9984 18.6762 22.9024 16.9762 25.0478ZM29.291 26.5098C29.053 28.1078 27.965 29.4338 26.469 30.0798C23.579 31.3378 20.7196 29.3318 18.2716 26.6118C22.321 21.5424 23.069 17.5984 21.3316 15.045C20.3116 13.583 18.8496 12.869 16.9762 12.869C13.2022 12.869 11.1248 16.065 11.9408 19.7744C12.4168 21.7804 13.6748 24.0618 15.6808 26.6118C14.4228 28.0058 13.2328 28.9918 12.1788 29.6038C11.3628 30.0458 10.5808 30.3178 9.8328 30.3858C6.3988 30.8958 3.70939 27.5638 4.93339 24.1264C5.10339 23.6844 5.4434 22.8684 6.02139 21.6104L6.0554 21.5424C7.9254 17.459 10.2068 12.835 12.8248 7.69755L12.8928 7.52755L13.6408 6.09955C14.2188 5.04555 14.4568 4.56955 15.3748 3.99155C15.8168 3.71955 16.3608 3.58355 16.9728 3.58355C18.1968 3.58355 19.1488 4.29755 19.5568 4.87555C19.7608 5.18155 19.9988 5.58955 20.3048 6.09955L21.0188 7.49355L21.1208 7.69755C23.7388 12.835 26.0202 17.459 27.8902 21.5424L27.9242 21.5764L28.6042 23.1404L29.0122 24.1264C29.325 24.9118 29.393 25.6938 29.291 26.5098ZM30.855 23.4464C30.617 22.6984 30.209 21.8144 29.699 20.7604V20.7264C27.285 15.589 25.0376 10.965 22.8956 6.81355L22.7596 6.60955C21.2296 3.48155 20.1416 1.60815 16.9762 1.60815C13.8482 1.60815 12.5188 3.78415 11.1588 6.60955L11.0568 6.81355C8.9148 10.965 6.66739 15.589 4.25339 20.7264V20.7944L3.53939 22.3584C3.26739 23.0044 3.13139 23.3444 3.09739 23.4464C1.36339 28.2098 4.9334 32.3918 9.2548 32.3918C9.2888 32.3918 9.4248 32.3918 9.5948 32.3578H10.0708C12.3148 32.0858 14.6302 30.6578 16.9762 28.1044C19.3222 30.6544 21.6376 32.0858 23.8816 32.3578H24.3576C24.5276 32.3918 24.6636 32.3918 24.6976 32.3918C29.019 32.3952 32.589 28.2098 30.855 23.4464Z" fill="white"/>
</svg>
